<svg width="61" height="74" viewBox="0 0 61 74" fill="none" xmlns="http://www.w3.org/2000/svg">
<g clip-path="url(#clip0_346_113)">
<path d="M48.0418 20.736C48.0418 20.736 48.9401 19.589 48.9979 18.078C49.0944 15.5694 46.5559 12.6855 46.6249 11.0366C46.6889 9.52664 47.5567 8.37146 47.5567 8.37146C47.5567 8.37146 46.6757 10.3077 47.1801 11.6193C47.7657 13.1394 49.3369 14.7485 49.7348 16.699C50.1327 18.6495 48.0418 20.736 48.0418 20.736Z" fill="#F29D38"/>
<path d="M50.6473 18.4788C50.977 17.914 51.1475 17.2693 51.1405 16.6141C51.0837 14.8926 49.3055 13.0443 49.272 11.9116C49.2665 11.2572 49.431 10.6126 49.749 10.0419C49.749 10.0419 49.271 11.4107 49.6587 12.2827C50.1601 13.4072 51.0675 14.3631 51.4004 15.6133C51.7516 16.931 50.6473 18.4788 50.6473 18.4788Z" fill="#F29D38"/>
<path d="M46.4859 19.7597C46.8463 19.117 47.0256 18.3875 47.0045 17.6497C46.9081 15.7073 44.8731 13.6628 44.8102 12.3921C44.7909 11.6551 44.9634 10.926 45.3106 10.277C45.3106 10.277 44.8031 11.8268 45.2527 12.802C45.7805 13.9265 46.833 15.0633 47.2522 16.5385C47.6714 18.0136 46.4859 19.7597 46.4859 19.7597Z" fill="#F29D38"/>
<path d="M5.05565 74C1.18048 74 -1.24937 69.7861 0.670963 66.3962L16.6639 38.1689H16.6061V35.6715L44.3382 35.6715V38.1689L60.3292 66.3962C62.2495 69.7861 59.8217 74 55.9445 74H5.05565Z" fill="#F68B1F"/>
<path d="M43.8196 16.2911L20.6335 8.624C21.3942 7.77942 21.8555 6.70473 21.9454 5.56801C22.0352 4.43129 21.7485 3.29662 21.13 2.34147C20.5115 1.38632 19.5962 0.664544 18.5272 0.289021C17.4582 -0.0865025 16.2958 -0.0945966 15.2217 0.266004C14.1476 0.626605 13.2225 1.33557 12.591 2.28201C11.9595 3.22846 11.6572 4.35902 11.7314 5.49689C11.8056 6.63476 12.2522 7.71576 13.0012 8.57085C13.7503 9.42594 14.7595 10.0069 15.8712 10.2228L2.2878 29.2373C2.19628 29.3658 2.14711 29.52 2.14722 29.6782C2.14733 29.8363 2.19671 29.9905 2.28842 30.1188C2.38012 30.2472 2.50951 30.3434 2.65835 30.3938C2.8072 30.4441 2.96798 30.4462 3.11805 30.3996L43.8043 17.7233C43.9543 17.6751 44.0854 17.5804 44.1789 17.4529C44.2724 17.3253 44.3237 17.1713 44.3254 17.0128C44.327 16.8542 44.2791 16.6991 44.1883 16.5696C44.0975 16.44 43.9685 16.3426 43.8196 16.2911ZM19.4977 6.4404C19.3962 6.62646 19.1009 7.09159 19.1009 7.09159C19.1009 7.09159 19.5627 8.90308 17.956 9.19647C17.956 9.19647 17.2546 8.01369 16.6162 7.63852C16.6162 7.63852 16.5046 7.06706 16.6761 6.87385C16.8476 6.68064 15.8418 6.05091 15.8418 6.05091L15.6713 5.51217C15.6713 5.51217 14.979 5.44367 14.029 6.03762C14.029 6.03762 11.9808 5.75445 12.7999 3.61583C12.7999 3.61583 12.742 2.43407 14.6999 1.82173C14.8084 2.02395 14.9724 2.19036 15.1725 2.30097C15.3725 2.41159 15.6 2.46171 15.8276 2.44532V2.0088L17.2912 1.87182L17.417 2.27255L19.0562 3.73544L19.6063 3.394C19.6063 3.394 20.1199 4.15355 19.0329 5.39869C19.0339 5.39869 19.6043 6.25026 19.4977 6.4404ZM20.2356 7.45348C19.9108 7.29503 19.9189 6.45062 19.9189 6.45062C20.2417 6.12656 20.2234 5.85668 20.2234 5.85668C20.4701 5.98446 20.4092 6.18278 20.4092 6.18278C20.4731 7.55264 20.2356 7.44939 20.2356 7.44939V7.45348Z" fill="#F68B1F"/>
<path d="M53.8952 30.1901C53.8931 30.6231 53.7743 31.0473 53.5516 31.4177C53.3289 31.788 53.0105 32.0905 52.6305 32.2929C50.7173 33.3152 48.6031 34.3201 43.513 34.4643H16.7177C12.3695 34.362 9.33778 33.0832 7.75442 32.2152C7.47766 32.0628 7.23363 31.8567 7.03642 31.6088C6.83921 31.3609 6.69274 31.076 6.60547 30.7707L32.737 22.5199H51.4735C52.102 22.5196 52.705 22.7701 53.1507 23.2164C53.5963 23.6628 53.8483 24.2688 53.8515 24.9018C53.8587 26.6663 53.9043 28.4277 53.8952 30.1901Z" fill="#F68B1F"/>
</g>
<defs>
<clipPath id="clip0_346_113">
<rect width="61" height="74" fill="white"/>
</clipPath>
</defs>
</svg>
