<svg width="37" height="35" viewBox="0 0 37 35" fill="current" xmlns="http://www.w3.org/2000/svg">
<path d="M33.9473 35.0001L3.74786 35.0001C1.44881 35.0001 0.00703067 32.5717 1.13707 30.6138L9.94362 15.4969L15.7107 28.7448C16.2563 30.0035 17.5162 30.8172 18.919 30.8172C20.3738 30.8172 21.6467 29.9527 22.1663 28.6304L27.3489 15.4461L27.4918 15.0901L36.5321 30.6011C37.6881 32.5717 36.2463 35.0001 33.9473 35.0001Z" fill="current"/>
<path d="M8.19043 9.90283V9.99166L8.48918 9.90283H8.19043Z" fill="current"/>
<path d="M26.9089 10.453C26.8573 10.5533 26.0304 12.6088 26.0304 12.6088L25.2939 14.4512L25.2164 14.6392L20.1515 27.4485C20.0482 27.7243 19.8285 27.8997 19.583 27.9624C19.5443 27.9749 19.5055 27.9875 19.4667 27.9875C19.4151 27.9875 19.3763 28 19.3246 28C19.2859 28 19.2471 28 19.1954 27.9875C19.1567 27.9875 19.1179 27.9749 19.0791 27.9624C19.0404 27.9499 19.0016 27.9373 18.9628 27.9248C18.8724 27.8872 18.782 27.8245 18.7044 27.7493C18.6915 27.7368 18.6786 27.7243 18.6527 27.6992C18.6269 27.6616 18.6011 27.6365 18.5752 27.5989C18.5494 27.5613 18.5235 27.5237 18.5106 27.4736L12.7998 14.4637L11.3914 11.2426C10.0735 8.24709 10.7583 4.82543 13.1357 2.51925L13.3553 2.30618C13.4329 2.23098 13.4975 2.16831 13.575 2.09311C13.6525 2.03044 13.73 1.95524 13.8076 1.89257C13.9109 1.80483 14.0143 1.7171 14.1306 1.6419C14.2727 1.54163 14.4148 1.44136 14.5569 1.34109C14.5957 1.31603 14.6474 1.27842 14.6862 1.25336C14.7766 1.19069 14.867 1.14056 14.9704 1.09042C15.203 0.965086 15.4355 0.83975 15.681 0.726948C15.7973 0.676813 15.9265 0.626678 16.0428 0.576544C17.0248 0.188003 18.0713 0 19.1308 0C19.8414 0 20.5521 0.0877348 21.2498 0.263205C21.379 0.300806 21.5082 0.325873 21.6245 0.363474C21.7537 0.401074 21.87 0.438675 21.9992 0.48881C23.0457 0.864817 24.0277 1.45389 24.8675 2.25604C25.7978 3.14593 26.4697 4.17368 26.8702 5.28917C27.2061 6.20412 26.4697 7.14414 25.4877 7.14414C25.4489 7.14414 25.4102 7.14414 25.3585 7.14414C25.3326 7.14414 25.2939 7.14414 25.268 7.1316C25.2164 7.1316 25.1647 7.1316 25.1001 7.11907C25.0613 7.11907 25.0226 7.11907 24.9838 7.11907H24.9321C24.8029 7.11907 24.6866 7.10654 24.5703 7.06893C24.5445 7.06893 24.5187 7.0564 24.4928 7.04387C24.1827 6.95613 23.8985 6.75559 23.7176 6.49239C23.6788 6.44226 23.653 6.39212 23.6271 6.34199C23.6013 6.30439 23.5755 6.25425 23.5625 6.20412C23.33 5.61504 22.9553 5.08863 22.4514 4.61235C21.534 3.735 20.3324 3.29633 19.1308 3.29633C17.9163 3.29633 16.7018 3.74754 15.7844 4.63742L15.5647 4.85049C14.1952 6.17905 13.7946 8.17189 14.5569 9.90152L16.6113 14.6016L19.1954 20.5049L21.534 14.6016L22.2188 12.8845L19.4538 12.8845C19.1825 12.8845 18.937 12.7216 18.8336 12.4834L17.9938 10.4279C17.8258 10.0018 18.1489 9.55058 18.614 9.55058L26.2888 9.55058C26.7668 9.57565 27.0769 10.0394 26.9089 10.453Z" fill="current"/>
</svg>
