<svg width="82" height="82" viewBox="0 0 82 82" fill="none" xmlns="http://www.w3.org/2000/svg">
<path d="M75.1509 81.1997H6.79831C1.59469 81.1997 -1.6686 75.5845 0.889111 71.057L20.8216 36.1017L33.8748 66.7354C35.1095 69.6459 37.9612 71.5274 41.1363 71.5274C44.429 71.5274 47.3101 69.5283 48.4861 66.4708L60.2163 35.9841L60.5396 35.1609L81.0013 71.0276C83.6179 75.5845 80.3546 81.1997 75.1509 81.1997Z" fill="white"/>
<path d="M16.8528 23.1663V23.3721L17.529 23.1663H16.8528Z" fill="white"/>
<path d="M58.3937 24.5188C58.2761 24.7539 56.3945 29.5754 56.3945 29.5754L54.7188 33.897L54.5424 34.338L43.018 64.3838C42.7828 65.0305 42.283 65.4421 41.7245 65.5891C41.6363 65.6185 41.5481 65.6479 41.4599 65.6479C41.3423 65.6479 41.2541 65.6773 41.1365 65.6773C41.0483 65.6773 40.9601 65.6773 40.8425 65.6479C40.7543 65.6479 40.6661 65.6185 40.5779 65.5891C40.4897 65.5597 40.4015 65.5303 40.3133 65.5009C40.1075 65.4127 39.9017 65.2657 39.7253 65.0893C39.6959 65.0599 39.6665 65.0305 39.6077 64.9717C39.5489 64.8836 39.4901 64.8247 39.4313 64.7365C39.3725 64.6484 39.3137 64.5602 39.2843 64.4426L26.29 33.9264L23.0855 26.3709C20.0868 19.3445 21.6449 11.3186 27.0544 5.90919L27.5541 5.40941C27.7305 5.23302 27.8775 5.08603 28.0539 4.90963C28.2303 4.76264 28.4067 4.58624 28.5831 4.43925C28.8183 4.23345 29.0535 4.02766 29.3181 3.85127C29.6415 3.61607 29.9649 3.38088 30.2882 3.14569C30.3764 3.08689 30.494 2.9987 30.5822 2.9399C30.788 2.7929 30.9938 2.67531 31.229 2.55771C31.7582 2.26372 32.2874 1.96973 32.846 1.70514C33.1105 1.58755 33.4045 1.46995 33.6691 1.35235C35.9034 0.440984 38.2848 0 40.6955 0C42.3124 0 43.9294 0.205792 45.5169 0.617378C45.8109 0.705575 46.1049 0.764374 46.3695 0.852571C46.6635 0.940768 46.9281 1.02896 47.2221 1.14656C49.6034 2.02853 51.8377 3.41028 53.7486 5.29182C55.8654 7.37914 57.3941 9.78986 58.3055 12.4064C59.0698 14.5525 57.3941 16.7574 55.1598 16.7574C55.0716 16.7574 54.9834 16.7574 54.8658 16.7574C54.807 16.7574 54.7188 16.7574 54.66 16.728C54.5424 16.728 54.4248 16.728 54.2778 16.6986C54.1896 16.6986 54.1014 16.6986 54.0132 16.6986H53.8956C53.6016 16.6986 53.337 16.6692 53.0725 16.581C53.0137 16.581 52.9549 16.5516 52.8961 16.5222C52.1905 16.3164 51.5437 15.846 51.1321 15.2287C51.0439 15.1111 50.9851 14.9935 50.9263 14.8759C50.8675 14.7877 50.8087 14.6701 50.7793 14.5525C50.2502 13.1707 49.3976 11.936 48.251 10.8188C46.1637 8.76089 43.4296 7.73193 40.6955 7.73193C37.932 7.73193 35.1685 8.7903 33.0811 10.8776L32.5814 11.3774C29.4651 14.4937 28.5537 19.1681 30.2882 23.2252L34.9627 34.2498L40.8425 48.0967L46.1637 34.2498L47.7218 30.2222H41.4305C40.8131 30.2222 40.2545 29.84 40.0193 29.2814L38.1084 24.46C37.7262 23.4604 38.4612 22.402 39.5195 22.402H56.9825C58.0703 22.4608 58.7759 23.5486 58.3937 24.5188Z" fill="white"/>
</svg>
