<svg width="890" height="893" viewBox="0 0 890 893" fill="none" xmlns="http://www.w3.org/2000/svg">
<g filter="url(#filter0_f_222_30)">
<path d="M327.993 117.626C342.18 103.359 362.93 97.7992 382.349 103.062L670.056 181.024C689.312 186.242 704.338 201.31 709.501 220.581L787.192 510.526C792.355 529.796 786.877 550.359 772.81 564.506L562.63 775.876C548.443 790.144 527.693 795.704 508.273 790.441L220.567 712.479C201.311 707.261 186.285 692.192 181.121 672.922L103.431 382.977C98.2673 363.706 103.746 343.144 117.813 328.997L327.993 117.626Z" fill="white"/>
</g>
<path d="M320.095 121.471C334.282 107.204 355.032 101.644 374.452 106.906L655.137 182.966C674.393 188.184 689.419 203.253 694.582 222.523L770.381 505.407C775.544 524.678 770.066 545.24 755.998 559.387L550.948 765.599C536.761 779.866 516.011 785.426 496.591 780.164L215.906 704.104C196.65 698.886 181.624 683.818 176.461 664.547L100.662 381.663C95.4989 362.393 100.977 341.83 115.045 327.684L320.095 121.471Z" fill="white"/>
<defs>
<filter id="filter0_f_222_30" x="41.5214" y="41.111" width="807.58" height="811.281" filterUnits="userSpaceOnUse" color-interpolation-filters="sRGB">
<feFlood flood-opacity="0" result="BackgroundImageFix"/>
<feBlend mode="normal" in="SourceGraphic" in2="BackgroundImageFix" result="shape"/>
<feGaussianBlur stdDeviation="30" result="effect1_foregroundBlur_222_30"/>
</filter>
</defs>
</svg>
