<svg width="1083" height="1122" viewBox="0 0 1083 1122" fill="none" xmlns="http://www.w3.org/2000/svg">
<path d="M467.295 126.33L853.053 230.862C869.558 235.335 882.437 248.25 886.863 264.768L990.954 653.242C995.38 669.76 990.684 687.385 978.627 699.51L696.817 982.917C684.657 995.146 666.871 999.911 650.226 995.401L264.468 890.869C247.963 886.396 235.084 873.48 230.658 856.963L126.566 468.489C122.141 451.971 126.837 434.346 138.894 422.22L420.704 138.814C432.864 126.585 450.65 121.819 467.295 126.33Z" stroke="#C05F41" stroke-opacity="0.47" stroke-width="2"/>
<ellipse cx="361.5" cy="196.061" rx="11.5" ry="11" fill="#1E1E1E"/>
<ellipse cx="210" cy="783.561" rx="11" ry="10.5" fill="#1E1E1E"/>
<ellipse cx="970.5" cy="575.061" rx="11.5" ry="11" fill="#1E1E1E"/>
</svg>
