<svg width="96" height="96" viewBox="0 0 96 96" fill="none" xmlns="http://www.w3.org/2000/svg">
<path d="M48 32C39.16 32 32 39.16 32 48C32 56.84 39.16 64 48 64C56.84 64 64 56.84 64 48C64 39.16 56.84 32 48 32ZM83.76 44C81.92 27.32 68.68 14.08 52 12.24V4H44V12.24C27.32 14.08 14.08 27.32 12.24 44H4V52H12.24C14.08 68.68 27.32 81.92 44 83.76V92H52V83.76C68.68 81.92 81.92 68.68 83.76 52H92V44H83.76ZM48 76C32.52 76 20 63.48 20 48C20 32.52 32.52 20 48 20C63.48 20 76 32.52 76 48C76 63.48 63.48 76 48 76Z" fill="white"/>
</svg>
