<svg width="241" height="241" viewBox="0 0 241 241" fill="none" xmlns="http://www.w3.org/2000/svg">
<g filter="url(#filter0_f_226_40)">
<path d="M111.5 46.4848C117.379 43.0908 124.621 43.0908 130.5 46.4848L179.916 75.0152C185.795 78.4092 189.416 84.6816 189.416 91.4697V148.53C189.416 155.318 185.795 161.591 179.916 164.985L130.5 193.515C124.621 196.909 117.379 196.909 111.5 193.515L62.084 164.985C56.2054 161.591 52.584 155.318 52.584 148.53V91.4697C52.584 84.6816 56.2054 78.4092 62.084 75.0152L111.5 46.4848Z" fill="#F3C651"/>
</g>
<path d="M110.5 52.7735C116.688 49.2008 124.312 49.2008 130.5 52.7735L174.153 77.9765C180.341 81.5492 184.153 88.1517 184.153 95.297V145.703C184.153 152.848 180.341 159.451 174.153 163.024L130.5 188.226C124.312 191.799 116.688 191.799 110.5 188.226L66.8471 163.024C60.6591 159.451 56.8471 152.848 56.8471 145.703V95.297C56.8471 88.1517 60.6591 81.5492 66.8471 77.9765L110.5 52.7735Z" fill="#F3C651"/>
<path d="M130.25 6.20651L214.606 54.9095C220.639 58.3928 224.356 64.8303 224.356 71.797V169.203C224.356 176.17 220.639 182.607 214.606 186.09L130.25 234.793C124.217 238.277 116.783 238.277 110.75 234.793L26.3939 186.09C20.3606 182.607 16.6439 176.17 16.6439 169.203V71.797C16.6439 64.8303 20.3606 58.3928 26.3939 54.9095L110.75 6.20652C116.783 2.72318 124.217 2.72318 130.25 6.20651Z" stroke="#F3C651"/>
<ellipse cx="47" cy="41.5" rx="11" ry="10.5" fill="#F3C651"/>
<ellipse cx="200" cy="194.5" rx="11" ry="10.5" fill="#F3C651"/>
<defs>
<filter id="filter0_f_226_40" x="12.584" y="3.9393" width="216.832" height="232.121" filterUnits="userSpaceOnUse" color-interpolation-filters="sRGB">
<feFlood flood-opacity="0" result="BackgroundImageFix"/>
<feBlend mode="normal" in="SourceGraphic" in2="BackgroundImageFix" result="shape"/>
<feGaussianBlur stdDeviation="20" result="effect1_foregroundBlur_226_40"/>
</filter>
</defs>
</svg>
