<?xml version="1.0" encoding="utf-8"?>
<!-- Generator: Adobe Illustrator 21.0.0, SVG Export Plug-In . SVG Version: 6.00 Build 0)  -->
<svg version="1.1" id="Layer_8" xmlns="http://www.w3.org/2000/svg" xmlns:xlink="http://www.w3.org/1999/xlink" x="0px" y="0px"
	 viewBox="0 0 500 500" style="enable-background:new 0 0 500 500;" xml:space="preserve">
<style type="text/css">
	.st0{fill:#F37321;}
	.st1{fill:#FF0000;}
</style>
<g id="Layer_7">
	<g>
		<path class="st0" d="M366.3,375.8H133.8c-17.7,0-28.8-19.1-20.1-34.5l67.8-118.9l44.4,104.2c4.2,9.9,13.9,16.3,24.7,16.3
			c11.2,0,21-6.8,25-17.2l39.9-103.7l1.1-2.8l69.6,122C395.1,356.7,384,375.8,366.3,375.8z"/>
		<path class="st0" d="M168,178.4v0.7l2.3-0.7H168z"/>
	</g>
	<g>
		<g>
			<path class="st1" d="M309.3,183L309.3,183c-0.4,0.8-6.8,17.2-6.8,17.2l-5.7,14.7l-0.6,1.5L257,318.6c-0.8,2.2-2.5,3.6-4.4,4.1
				c-0.3,0.1-0.6,0.2-0.9,0.2c-0.4,0-0.7,0.1-1.1,0.1c-0.3,0-0.6,0-1-0.1c-0.3,0-0.6-0.1-0.9-0.2c-0.3-0.1-0.6-0.2-0.9-0.3
				c-0.7-0.3-1.4-0.8-2-1.4c-0.1-0.1-0.2-0.2-0.4-0.4c-0.2-0.3-0.4-0.5-0.6-0.8c-0.2-0.3-0.4-0.6-0.5-1L200.1,215l-10.9-25.7
				c-10.2-23.9-4.9-51.2,13.5-69.6l1.7-1.7c0.6-0.6,1.1-1.1,1.7-1.7c0.6-0.5,1.2-1.1,1.8-1.6c0.8-0.7,1.6-1.4,2.5-2
				c1.1-0.8,2.2-1.6,3.3-2.4c0.3-0.2,0.7-0.5,1-0.7c0.7-0.5,1.4-0.9,2.2-1.3c1.8-1,3.6-2,5.5-2.9c0.9-0.4,1.9-0.8,2.8-1.2
				c7.6-3.1,15.7-4.6,23.9-4.6c5.5,0,11,0.7,16.4,2.1c1,0.3,2,0.5,2.9,0.8c1,0.3,1.9,0.6,2.9,1c8.1,3,15.7,7.7,22.2,14.1
				c7.2,7.1,12.4,15.3,15.5,24.2c2.6,7.3-3.1,14.8-10.7,14.8c-0.3,0-0.6,0-1,0c-0.2,0-0.5,0-0.7-0.1c-0.4,0-0.8,0-1.3-0.1
				c-0.3,0-0.6,0-0.9,0H294c-1,0-1.9-0.1-2.8-0.4c-0.2,0-0.4-0.1-0.6-0.2c-2.4-0.7-4.6-2.3-6-4.4c-0.3-0.4-0.5-0.8-0.7-1.2
				c-0.2-0.3-0.4-0.7-0.5-1.1c-1.8-4.7-4.7-8.9-8.6-12.7c-7.1-7-16.4-10.5-25.7-10.5c-9.4,0-18.8,3.6-25.9,10.7l-1.7,1.7
				c-10.6,10.6-13.7,26.5-7.8,40.3l15.9,37.5l20,47.1l18.1-47.1l5.3-13.7h-21.4c-2.1,0-4-1.3-4.8-3.2l-6.5-16.4
				c-1.3-3.4,1.2-7,4.8-7h59.4C308.2,176,310.6,179.7,309.3,183z"/>
		</g>
	</g>
</g>
</svg>
